# xmcd CD database file
#
# Track frame offsets:
#	183
#	14203
#	29770
#	43463
#	54048
#	68218
#	80973
#	94453
#	107775
#	121048
#	133450
#	148500
#	158785
#	172795
#	184983
#	199210
#	210093
#	223825
#	236550
#	251318
#
# Disc length: 3523 seconds
#
# Revision: 0
# Processed by: cddbd v1.5.1PL0 Copyright (c) Steve Scherf et al.
# Submitted via: CDex 1.51
#
DISCID=2f0dc114
DTITLE=Ink Spots - The Very Best of The Ink Spots
DYEAR=1900
DGENRE=Jazz
TTITLE0=If I Didn't Care
TTITLE1=I'll Never Smile Again
TTITLE2=Jave Jive
TTITLE3=Stop Pretending
TTITLE4=Maybe
TTITLE5=My Feets Too Big
TTITLE6=I Don't Want To Set the World On Fire
TTITLE7=When The Swallows Come Back To Capistrano
TTITLE8=That Cat Is High
TTITLE9=Whispering Grass (Don't Tell The Trees)
TTITLE10=Someone's Rocking My Dreamboat
TTITLE11=Who Wouldn't Love You?
TTITLE12=Christopher Columbus
TTITLE13=Do I Worry?
TTITLE14=My Prayer
TTITLE15=Slap That Bass
TTITLE16=Don't Get Around Much Anymore
TTITLE17=I'm Gettin' Sentimental Over You
TTITLE18=We Three (My Echo, My Shadow, and Me)
TTITLE19=Bless You
EXTD=
EXTT0=
EXTT1=
EXTT2=
EXTT3=
EXTT4=
EXTT5=
EXTT6=
EXTT7=
EXTT8=
EXTT9=
EXTT10=
EXTT11=
EXTT12=
EXTT13=
EXTT14=
EXTT15=
EXTT16=
EXTT17=
EXTT18=
EXTT19=
PLAYORDER=
